<?xml version="1.0" encoding="utf-8"?>
<!-- Generator: Adobe Illustrator 18.1.1, SVG Export Plug-In . SVG Version: 6.00 Build 0)  -->
<svg version="1.1" id="Layer_1" xmlns="http://www.w3.org/2000/svg" xmlns:xlink="http://www.w3.org/1999/xlink" x="0px" y="0px"
	 viewBox="0 0 780 300" enable-background="new 0 0 780 300" xml:space="preserve">
<rect y="-0.4" fill="#FFFFFF" stroke="#000000" stroke-miterlimit="10" width="780" height="300.8"/>
<text transform="matrix(1 0 0 1 41.5833 125.3372)" font-family="'MyriadPro-Semibold'" font-size="100">Sunflower</text>
<text transform="matrix(1 0 0 1 41.5833 226.7764)" font-family="'MyriadPro-Semibold'" font-size="100">Consulting</text>
<g>
	<path fill="#FFD72E" d="M584.4,174.3c-9.3-20.5-18.7-41.4-22.3-63.6s-0.8-46.4,12.4-64.7c2.7-3.7,6.6-7.4,11.1-6.8
		c1.7,0.2,3.3,1.1,4.8,2c6.2,3.6,12.7,7.9,15.4,14.5c2.9,6.9,1,14.8-1.1,22c-4.7,15.9-10.8,31.4-14.6,47.6
		c-3.8,16.2-5.3,33.3-0.8,49.3"/>
	<g>
		<path d="M586.6,173.1c-14.8-32.7-30.8-69.3-19.7-105.6c2.4-7.9,6.3-17.5,12.6-23.1c4.9-4.4,9.9-1,14.5,2c4,2.7,7.9,6,9.7,10.6
			c3.7,9.3-1.2,20.5-4,29.4c-2.9,9.1-6.1,18.2-8.8,27.4c-5.9,20-9.3,41.2-3.7,61.7c0.8,3.1,5.7,1.8,4.8-1.3
			c-6.2-22.9-0.5-46.2,6.5-68.2c3.5-10.7,7.6-21.4,10.2-32.4c2-8.6,1.9-17.5-4.1-24.5c-4.4-5.2-13.8-12.9-21-12.1
			c-8.1,0.9-13.3,10.4-16.5,16.8c-8.5,16.6-10.2,35.9-7.8,54.2c3.2,23.8,13.2,46,23,67.7C583.6,178.5,587.9,176,586.6,173.1
			L586.6,173.1z"/>
	</g>
</g>
<g>
	<g>
		<path d="M586.3,178.1c0.5-0.1,0.9-0.3,1.4-0.4c1.3-0.3,2.2-1.8,1.7-3.1c-0.4-1.3-1.7-2.1-3.1-1.7c-0.5,0.1-0.9,0.3-1.4,0.4
			c-1.3,0.3-2.2,1.8-1.7,3.1C583.7,177.7,585,178.5,586.3,178.1L586.3,178.1z"/>
	</g>
</g>
<g>
	<path fill="#FFD72E" d="M594.2,175.4c4.9-22,10-44.3,20.5-64.2c10.5-19.9,27.3-37.6,48.8-44.2c4.4-1.3,9.7-2,13,1.3
		c1.2,1.2,2,2.9,2.6,4.5c2.8,6.6,5.4,13.9,3.6,20.9c-1.9,7.2-8.1,12.4-14.1,16.9c-13.3,9.9-27.5,18.6-40.3,29.2S604,163.3,598,178.8
		"/>
	<g>
		<path d="M596.6,176.1c8.1-36,17.7-77,50.7-98.6c6.2-4.1,16.4-10.3,24.1-8.8c5.1,1,6.5,7.4,7.9,11.7c1.8,6,2.3,12-1.1,17.5
			c-4.7,7.8-14.1,13-21.4,18.1c-8.2,5.7-16.6,11.4-24.5,17.5c-15.5,12-29.3,26.2-36.6,44.6c-1.2,3,3.6,4.3,4.8,1.3
			c8.3-20.9,25.9-35.8,43.8-48.6c9.1-6.5,18.6-12.6,27.5-19.4c6.5-4.9,12.7-11,13.9-19.4c0.7-5-0.4-10-2-14.7
			c-1.4-3.9-2.9-8.9-6.3-11.6c-6.3-4.8-15.6-1-22,1.8c-16.7,7.4-30,21.1-39.4,36.6c-13,21.5-18.6,46.5-24.1,70.7
			C591.1,177.9,595.9,179.2,596.6,176.1L596.6,176.1z"/>
	</g>
</g>
<g>
	<g>
		<path d="M593.7,179.7c0.4,0.2,0.9,0.4,1.3,0.5c0.6,0.2,1.4,0,1.9-0.3c0.5-0.3,1-0.9,1.1-1.5c0.3-1.4-0.4-2.6-1.7-3.1
			c-0.4-0.2-0.9-0.4-1.3-0.5c-0.6-0.2-1.4,0-1.9,0.3c-0.5,0.3-1,0.9-1.1,1.5C591.6,178.1,592.3,179.2,593.7,179.7L593.7,179.7z"/>
	</g>
</g>
<g>
	<path fill="#FFD72E" d="M602.1,180.5c17-14.8,34.2-29.8,54.4-39.7c20.2-9.9,44.2-14.2,65.5-6.8c4.3,1.5,9,4.2,9.7,8.7
		c0.3,1.7-0.1,3.5-0.5,5.2c-1.7,7-3.9,14.4-9.4,19c-5.8,4.7-13.9,5.3-21.3,5.3c-16.6,0.1-33.2-1.2-49.8-0.2
		c-16.6,1-33.4,4.6-47.4,13.5"/>
	<g>
		<path d="M603.9,182.2c27.9-24.4,60-51.7,99.7-49.4c6.9,0.4,23.5,1.7,25.5,10.1c0.9,3.7-1.4,9.7-2.9,13.3
			c-1.9,4.6-4.8,8.7-9.4,10.9c-8.3,3.9-19,2.7-27.8,2.5c-9.9-0.2-19.8-0.6-29.7-0.4c-19.9,0.4-40.1,3.5-57.2,14.2
			c-2.7,1.7-0.2,6,2.5,4.3c19.3-12,42.1-13.8,64.3-13.5c11.5,0.1,23.1,0.9,34.6,0.5c8.1-0.3,16.6-1.8,22.3-8.1
			c4.9-5.5,9.4-16.4,8.5-23.8c-0.9-8.2-10.6-11.2-17.3-12.8c-19.6-4.8-40.3-0.9-58.5,7.3c-21.9,9.9-40.2,25.9-58.1,41.6
			C598,180.8,601.5,184.3,603.9,182.2L603.9,182.2z"/>
	</g>
</g>
<g>
	<g>
		<path d="M599,183.3c0.3,0.4,0.5,0.8,0.8,1.2c0.7,1.1,2.3,1.6,3.4,0.9c1.1-0.7,1.6-2.2,0.9-3.4c-0.3-0.4-0.5-0.8-0.8-1.2
			c-0.7-1.1-2.3-1.6-3.4-0.9C598.8,180.6,598.2,182.1,599,183.3L599,183.3z"/>
	</g>
</g>
<circle fill="#421C0D" stroke="#000000" stroke-width="4" stroke-miterlimit="10" cx="588" cy="191.9" r="9.9"/>
</svg>
